# xmcd
#
# Track frame offsets:
#	150
#	16773
#	31154
#	47624
#	62290
#	77752
#	94955
#	111263
#	129627
#	148512
#	163520
#	176794
#	196437
#	211924
#	228035
#	239856
#	258805
#	273489
#	291621
#	307491
#
# Disc length: 4297 seconds
#
# Revision: 1
# Processed by: cddbd v1.5.1PL0 Copyright (c) Steve Scherf et al.
# Submitted via: audiograbber 1.83.01
#
DISCID=2410c714
DTITLE=Various Artist - RC44
DYEAR=1997
DGENRE=Country
TTITLE0=Shania Twain - Love Gets Me Every Time
TTITLE1=Brooks and Dunn - Honky Tonk Truth
TTITLE2=Trisha Yearwood ft. Garth Brooks - In Another's Eyes
TTITLE3=George Strait - Today My World Slipped Away
TTITLE4=Deanna Carter - How Do I Get There
TTITLE5=Sawyer Brown - This Night Won't Last Forever
TTITLE6=Chely Wright - Shut Up And Drive
TTITLE7=Clint Black - Something That We Do
TTITLE8=Travis Tritt ft. Lari White - Helping Me Get Over You
TTITLE9=Bryan White - Love Is The Right Place
TTITLE10=Lorrie Morgan - Go Away
TTITLE11=Tim McGraw - Everywhere
TTITLE12=Pam Tillis - Land Of The Living
TTITLE13=Buffalo Club - Nothin' Less Than Love
TTITLE14=Kevin Sharp - If You Love Somebody
TTITLE15=Reba McEntire - What If It's You
TTITLE16=Clay Walker - Watch This
TTITLE17=Lila McCann - Down Came A Blackbird
TTITLE18=Mark Chesnutt - Thank God For Believers
TTITLE19=Trace Adkins - The Rest Of Mine
EXTD=
EXTT0=
EXTT1=
EXTT2=
EXTT3=
EXTT4=
EXTT5=
EXTT6=
EXTT7=
EXTT8=
EXTT9=
EXTT10=
EXTT11=
EXTT12=
EXTT13=
EXTT14=
EXTT15=
EXTT16=
EXTT17=
EXTT18=
EXTT19=
PLAYORDER=
